<svg xmlns="http://www.w3.org/2000/svg" xmlns:xlink="http://www.w3.org/1999/xlink" width="532" zoomAndPan="magnify" viewBox="0 0 398.88 250.499992" height="334" preserveAspectRatio="xMidYMid meet" version="1.0"><defs><g/><clipPath id="22fa5dcd86"><path d="M 109 47.675781 L 188.960938 47.675781 L 188.960938 168.933594 L 109 168.933594 Z M 109 47.675781 " clip-rule="nonzero"/></clipPath><clipPath id="2ad9702a57"><path d="M 171 23 L 296 23 L 296 108 L 171 108 Z M 171 23 " clip-rule="nonzero"/></clipPath><clipPath id="f8660d654d"><path d="M 166.785156 42.355469 L 245.144531 0.0078125 L 299.949219 101.414062 L 221.589844 143.765625 Z M 166.785156 42.355469 " clip-rule="nonzero"/></clipPath><clipPath id="18d539b03a"><path d="M 245.15625 0.00390625 L 166.792969 42.351562 L 221.597656 143.757812 L 299.960938 101.410156 Z M 245.15625 0.00390625 " clip-rule="nonzero"/></clipPath></defs><g clip-path="url(#22fa5dcd86)"><path fill="#0000ff" d="M 155.394531 58.945312 C 157.058594 59.042969 158.492188 60.625 158.421875 62.292969 C 158.40625 62.695312 158.3125 63.085938 158.21875 63.480469 C 158.078125 64.082031 157.9375 64.6875 157.796875 65.289062 C 157.519531 66.484375 157.238281 67.675781 156.960938 68.871094 C 156.648438 70.199219 156.28125 71.625 155.230469 72.5 C 154.734375 72.90625 154.121094 73.164062 153.6875 73.632812 C 153.25 74.101562 153.078125 74.929688 153.5625 75.347656 C 154 75.722656 154.660156 75.546875 155.238281 75.535156 C 156.585938 75.503906 157.722656 76.46875 158.71875 77.375 C 160.582031 79.078125 162.445312 80.777344 164.3125 82.476562 C 164.617188 82.757812 165.332031 82.828125 165.226562 82.425781 C 166.527344 80.75 168.507812 79.496094 170.183594 78.195312 C 171.859375 76.894531 173.445312 75.214844 173.730469 73.113281 C 173.765625 72.84375 173.789062 72.546875 173.980469 72.355469 C 174.234375 72.089844 174.683594 72.125 174.96875 71.894531 C 175.199219 71.703125 175.265625 71.390625 175.398438 71.125 C 175.847656 70.230469 177.109375 69.972656 178.003906 70.421875 C 178.894531 70.871094 179.421875 71.851562 179.582031 72.835938 C 179.742188 73.820312 179.589844 74.828125 179.4375 75.816406 C 177.601562 76.027344 176.046875 77.316406 174.96875 78.820312 C 173.894531 80.324219 173.195312 82.058594 172.3125 83.683594 C 171.621094 84.964844 170.808594 86.183594 169.898438 87.320312 C 168.835938 88.636719 167.375 89.945312 165.695312 89.738281 C 164.332031 89.570312 163.253906 88.433594 161.898438 88.1875 C 160.480469 87.929688 158.667969 88.566406 157.808594 87.410156 C 156.859375 88.992188 157.871094 91.070312 157.402344 92.855469 C 157.011719 94.339844 155.609375 95.71875 156.152344 97.15625 C 157.339844 96.835938 158.003906 95.625 158.726562 94.628906 C 160.003906 92.863281 161.847656 91.515625 163.917969 90.828125 C 166.214844 90.0625 169.039062 90.234375 170.695312 92.007812 C 171.542969 92.921875 171.980469 94.132812 172.398438 95.308594 C 172.988281 96.976562 173.582031 98.644531 174.171875 100.3125 C 174.59375 101.503906 175.015625 102.695312 175.488281 103.867188 C 176.753906 107.007812 178.371094 110.003906 180.304688 112.78125 C 181.578125 112.289062 182.425781 110.816406 182.953125 109.558594 C 183.480469 108.300781 184.261719 106.914062 185.605469 106.6875 C 186.566406 106.523438 187.550781 107.050781 188.125 107.835938 C 188.695312 108.617188 188.910156 109.617188 188.933594 110.585938 C 188.972656 112.125 188.566406 113.671875 187.78125 114.992188 C 186.460938 117.210938 184.195312 118.667969 182.414062 120.53125 C 181.417969 121.574219 180.558594 122.761719 179.433594 123.667969 C 178.308594 124.574219 176.820312 125.1875 175.421875 124.820312 C 175.148438 124.75 174.878906 124.640625 174.652344 124.46875 C 173.613281 123.691406 173.8125 122.105469 174.117188 120.84375 C 172.601562 120.980469 171.648438 119.28125 171.105469 117.859375 C 170.339844 115.855469 169.578125 113.855469 168.816406 111.855469 C 168.429688 110.84375 168.042969 109.832031 167.675781 108.816406 C 167.339844 107.886719 167.015625 106.957031 166.695312 106.023438 C 166.488281 105.433594 166.226562 104.78125 165.652344 104.542969 C 164.777344 104.183594 163.902344 104.996094 163.28125 105.710938 C 159.710938 109.816406 154.964844 113.320312 149.539062 113.699219 C 148.855469 113.746094 148.15625 113.746094 147.523438 114.003906 C 146.894531 114.261719 146.339844 114.859375 146.378906 115.539062 C 145.148438 116.808594 144.445312 118.21875 143.695312 119.816406 C 142.246094 122.898438 140.4375 125.792969 138.636719 128.679688 C 137.71875 130.148438 136.800781 131.621094 135.878906 133.089844 C 135.121094 134.308594 134.355469 135.53125 133.4375 136.636719 C 131.867188 138.53125 129.890625 140.035156 128.128906 141.746094 C 125.148438 144.648438 122.785156 148.175781 121.230469 152.03125 C 120.6875 153.382812 120.195312 154.84375 119.089844 155.789062 C 118.742188 159.230469 117.882812 162.851562 117.53125 166.292969 C 117.472656 166.875 117.398438 167.492188 117.023438 167.941406 C 116.609375 168.433594 115.929688 168.597656 115.292969 168.710938 C 113.546875 169.027344 111.523438 169.121094 110.238281 167.894531 C 108.96875 166.6875 108.945312 164.699219 109.113281 162.957031 C 109.417969 159.871094 110.066406 156.820312 111.042969 153.878906 C 111.195312 153.414062 111.359375 152.9375 111.320312 152.453125 C 111.28125 151.96875 110.980469 151.464844 110.507812 151.359375 C 110.375 151.328125 110.234375 151.332031 110.105469 151.28125 C 109.632812 151.101562 109.660156 150.371094 109.996094 149.988281 C 110.335938 149.609375 110.84375 149.425781 111.230469 149.097656 C 111.621094 148.769531 111.867188 148.136719 111.515625 147.769531 C 113.554688 147.09375 115.097656 145.402344 116.226562 143.574219 C 117.351562 141.746094 118.152344 139.734375 119.273438 137.902344 C 120.78125 135.441406 122.867188 133.335938 125.320312 131.808594 C 126.039062 131.359375 126.824219 130.929688 127.261719 130.203125 C 127.703125 129.476562 127.609375 128.347656 126.839844 127.988281 C 127.367188 127.882812 127.878906 127.695312 128.355469 127.441406 C 128.359375 126.949219 128.363281 126.460938 128.367188 125.972656 C 129.320312 125.363281 129.738281 124.035156 129.308594 122.988281 C 130.652344 120.128906 129.601562 116.535156 130.546875 113.519531 C 131.40625 110.789062 133.808594 108.414062 133.476562 105.570312 C 134.378906 104.867188 134.777344 103.582031 134.429688 102.492188 C 134.15625 101.628906 133.488281 100.957031 132.976562 100.210938 C 132.464844 99.464844 132.089844 98.480469 132.480469 97.664062 C 132.652344 97.308594 132.945312 97.03125 133.234375 96.761719 C 134.953125 95.15625 136.667969 93.554688 138.386719 91.953125 C 137.941406 87.085938 137.949219 82.191406 138.0625 77.308594 C 138.078125 76.683594 138.097656 76.050781 138.28125 75.453125 C 138.441406 74.925781 138.722656 74.441406 138.90625 73.917969 C 139.128906 73.265625 139.191406 72.570312 139.25 71.882812 C 139.371094 70.476562 139.492188 69.066406 139.433594 67.65625 C 139.3125 64.632812 138.460938 61.273438 140.226562 58.816406 C 140.429688 58.535156 140.664062 58.273438 140.960938 58.089844 C 141.453125 57.777344 142.0625 57.71875 142.644531 57.71875 C 144.078125 57.714844 145.511719 58.03125 146.8125 58.636719 C 149.351562 56.429688 152.101562 54.226562 155.179688 52.871094 C 157.648438 51.785156 160.601562 51.117188 162 48.816406 C 162.203125 48.484375 162.378906 48.109375 162.703125 47.898438 C 163.035156 47.683594 163.453125 47.675781 163.847656 47.679688 C 165.03125 47.695312 166.210938 47.746094 167.390625 47.832031 C 168.457031 47.90625 169.75 48.191406 170.058594 49.214844 C 169.652344 49.203125 169.222656 49.191406 168.851562 49.363281 C 168.480469 49.539062 168.183594 49.949219 168.285156 50.347656 C 167.351562 50.464844 166.449219 50.839844 165.710938 51.425781 C 165.164062 51.859375 164.640625 52.433594 163.941406 52.488281 C 163.976562 52.714844 164.011719 52.941406 164.042969 53.167969 C 164.746094 53.105469 165.441406 52.964844 166.113281 52.742188 C 166.238281 53.949219 164.777344 54.710938 163.5625 54.707031 C 162.351562 54.707031 161.085938 54.320312 159.957031 54.773438 C 159.53125 54.941406 159.160156 55.222656 158.800781 55.503906 C 157.472656 56.535156 156.625 57.800781 155.394531 58.945312 " fill-opacity="1" fill-rule="nonzero"/></g><g clip-path="url(#2ad9702a57)"><g clip-path="url(#f8660d654d)"><g clip-path="url(#18d539b03a)"><path fill="#0000ff" d="M 172.679688 53.105469 C 172.652344 52.925781 172.753906 52.792969 172.898438 52.707031 C 173.296875 52.464844 173.777344 52.714844 174.152344 52.871094 C 174.464844 53 174.972656 53.175781 175.144531 53.210938 C 175.3125 53.25 175.363281 53.175781 175.160156 53.113281 C 174.957031 53.054688 174.367188 52.714844 173.972656 52.546875 C 173.597656 52.394531 173.027344 52.089844 172.652344 51.875 C 172.222656 51.667969 171.855469 51.339844 171.96875 51.046875 C 172.175781 50.496094 172.917969 50.757812 173.273438 50.910156 C 173.753906 51.109375 174.191406 51.386719 174.660156 51.617188 C 174.9375 51.753906 175.535156 52.007812 175.8125 52.089844 C 176.03125 52.148438 175.988281 52.078125 175.886719 52.042969 C 175.703125 51.976562 175.585938 51.929688 175.433594 51.867188 C 174.960938 51.671875 174.507812 51.417969 174.050781 51.183594 C 173.644531 50.972656 173.246094 50.738281 172.894531 50.445312 C 172.585938 50.179688 172.675781 50.226562 172.375 49.949219 C 172.15625 49.75 171.78125 49.394531 171.898438 49.058594 C 172.042969 48.652344 172.46875 48.695312 172.832031 48.820312 C 173.242188 48.964844 173.316406 49.101562 173.652344 49.367188 C 174.058594 49.691406 174.503906 49.960938 174.949219 50.226562 C 175.371094 50.480469 175.789062 50.730469 176.242188 50.851562 C 176.382812 50.890625 176.382812 50.828125 176.261719 50.789062 C 176.082031 50.730469 175.296875 50.316406 174.824219 50.011719 C 174.214844 49.621094 173.597656 48.96875 173.28125 48.441406 C 173.148438 48.21875 173.539062 47.792969 173.832031 47.808594 C 174.089844 47.828125 174.332031 48.035156 174.539062 48.171875 C 175.058594 48.515625 175.371094 48.808594 175.875 49.167969 C 176.070312 49.304688 176.59375 49.4375 176.8125 49.53125 C 177.003906 49.617188 177.398438 49.578125 177.601562 49.625 C 177.851562 49.691406 178.382812 49.378906 178.574219 49.117188 C 178.84375 48.746094 178.488281 48.425781 178.25 48.152344 C 178.046875 47.921875 177.875 47.382812 177.910156 47.058594 C 177.953125 46.628906 178.40625 46.261719 178.699219 46.507812 C 178.847656 46.628906 179.207031 47.195312 179.332031 47.339844 C 179.457031 47.492188 179.652344 47.613281 179.820312 47.71875 C 180.230469 47.984375 180.4375 48.292969 180.816406 48.605469 C 181.214844 48.929688 181.507812 49.355469 181.804688 49.769531 C 181.957031 49.976562 182.101562 50.1875 182.308594 50.355469 C 182.484375 50.496094 182.675781 50.617188 182.882812 50.71875 L 182.980469 50.761719 C 183.050781 50.640625 183.128906 50.578125 183.210938 50.601562 C 183.914062 50.792969 203.46875 56.09375 203.46875 56.09375 L 203.539062 56.125 C 207.199219 54.175781 213.769531 50.738281 218.570312 48.570312 C 219.101562 47.382812 219.734375 46.011719 220.46875 44.644531 C 219.886719 45.117188 219.253906 45.535156 218.5625 45.894531 C 216.488281 46.96875 213.257812 48.503906 211.125 47.816406 C 209.636719 47.335938 209.144531 44.945312 207.980469 44.058594 C 207.605469 43.773438 207.183594 44.328125 206.867188 43.988281 C 205.851562 42.921875 206.359375 41.550781 205.59375 40.074219 C 205.25 39.410156 204.320312 39.277344 204.082031 38.597656 C 203.621094 37.277344 203.371094 35.941406 203.339844 34.648438 C 202.332031 33.757812 201.5625 32.589844 201.1875 31.285156 C 200.882812 30.230469 200.84375 29.144531 200.394531 28.121094 C 200.347656 28.015625 200.414062 27.84375 200.558594 27.871094 C 200.695312 27.890625 200.835938 27.882812 200.976562 27.875 C 200.550781 26.863281 200.449219 25.753906 200.023438 24.742188 C 199.957031 24.582031 200.160156 24.410156 200.285156 24.558594 C 200.585938 24.90625 200.851562 25.292969 201.222656 25.566406 C 201.214844 25.480469 201.203125 25.398438 201.171875 25.316406 C 201.132812 25.191406 201.304688 25.078125 201.402344 25.152344 C 202.179688 25.769531 203.304688 25.652344 204.226562 25.511719 C 205.152344 25.367188 206.058594 25.09375 206.949219 24.808594 C 207.867188 24.511719 208.769531 24.167969 209.710938 23.945312 C 210.886719 23.664062 212.097656 23.546875 213.300781 23.453125 C 215.195312 23.308594 217.027344 23.503906 218.574219 24.710938 C 219.109375 25.128906 219.566406 25.660156 219.90625 26.246094 C 219.988281 26.199219 220.097656 26.210938 220.152344 26.316406 C 220.398438 26.773438 220.773438 27.308594 221.03125 27.863281 C 221.9375 28.707031 222.71875 29.71875 223.324219 30.886719 C 224.773438 33.679688 224.917969 36.800781 223.988281 39.5625 C 225.355469 38.175781 226.882812 37.3125 228.546875 37.5 C 243.707031 39.203125 256.554688 56 261.222656 57.675781 C 265.894531 59.355469 269.527344 61.371094 269.527344 61.371094 C 269.527344 61.371094 267.734375 66.683594 263.417969 72.078125 L 268.898438 88.800781 L 287.820312 89.964844 L 287.519531 90.726562 C 288.054688 90.71875 288.609375 90.648438 288.773438 90.636719 C 290.066406 90.519531 293.175781 91.496094 293.527344 91.96875 C 293.796875 91.851562 294.875 92.558594 295.285156 92.730469 C 295.308594 92.769531 295.320312 92.804688 295.332031 92.847656 L 293.136719 97.683594 C 293.074219 97.675781 293.011719 97.671875 292.953125 97.660156 C 292.980469 97.789062 292.082031 97.199219 292.734375 99.332031 C 292.734375 99.332031 290.371094 103.828125 289.195312 105.640625 C 288.019531 107.449219 283.730469 107 283.730469 107 C 282.800781 105.550781 282.421875 103.285156 284.238281 102.070312 C 285.53125 101.210938 285.628906 101.535156 285.933594 100.101562 C 286.128906 99.164062 285.429688 98.191406 284.949219 97.234375 L 284.441406 98.519531 L 265.71875 96.710938 C 261.351562 96.871094 255.777344 85.628906 252.71875 78.582031 L 248.535156 74.234375 L 238.976562 80.601562 L 250.421875 90.972656 C 250.839844 91.097656 251.257812 91.1875 251.386719 91.21875 C 252.53125 91.496094 254.339844 92.363281 254.507812 92.871094 C 254.769531 92.847656 255.53125 93.664062 255.859375 93.90625 C 255.867188 93.945312 255.871094 93.984375 255.871094 94.023438 L 252.765625 98.148438 C 252.714844 98.117188 252.667969 98.09375 252.621094 98.0625 C 252.59375 98.175781 252.566406 98.292969 252.535156 98.40625 C 252.535156 98.40625 251.59375 100.054688 249.457031 101.957031 C 248.136719 103.136719 243.621094 104.75 242.722656 103.707031 C 242.25 101.292969 243.511719 99.984375 244.472656 99.609375 C 245.789062 99.105469 245.691406 99.082031 246.371094 97.941406 C 246.675781 97.425781 246.542969 97.011719 246.375 96.515625 L 246.03125 96.972656 C 246.03125 96.972656 230.453125 87.160156 228.824219 84.621094 C 227.1875 82.078125 228.710938 78.011719 228.710938 78.011719 L 239.453125 67.378906 L 233.480469 63.863281 C 233.472656 64.121094 233.449219 64.378906 233.394531 64.636719 C 232.511719 68.96875 221.40625 81.957031 221.40625 81.957031 L 220.070312 80.867188 C 220.007812 81.644531 219.875 82.503906 219.605469 83.285156 C 219.261719 84.277344 218.574219 85.179688 217.539062 85.710938 C 216.5 86.242188 215.804688 86.015625 214.671875 85.054688 C 213.046875 83.675781 211.460938 82.339844 211.925781 81.046875 C 212.214844 80.234375 212.304688 80.1875 213.519531 79.523438 C 213.296875 77.671875 216.089844 79.1875 217.183594 78.511719 L 217.058594 78.414062 L 226 59.410156 C 225.617188 59.164062 225.1875 58.875 224.730469 58.558594 C 224.40625 58.800781 224.042969 59.015625 223.640625 59.191406 C 218.3125 61.515625 207.769531 64.253906 204.949219 64.96875 C 204.738281 65.050781 204.503906 65.109375 204.242188 65.144531 C 199.859375 65.722656 186.753906 58.457031 185.089844 57.53125 C 184.046875 56.949219 183.417969 55.875 183.074219 54.746094 C 183.015625 54.710938 182.953125 54.679688 182.890625 54.65625 C 182.460938 54.492188 181.996094 54.390625 181.535156 54.390625 C 180.5 54.402344 179.5 54.617188 178.472656 54.734375 C 177.953125 54.792969 177.425781 54.820312 176.90625 54.777344 C 176.382812 54.734375 175.367188 54.457031 174.882812 54.265625 C 174.277344 54.027344 173.652344 53.703125 173.054688 53.40625 C 172.902344 53.328125 172.710938 53.289062 172.679688 53.105469 " fill-opacity="1" fill-rule="nonzero"/></g></g></g><g fill="#0000ff" fill-opacity="1"><g transform="translate(20.593688, 211.526327)"><g><path d="M 19.015625 0 L 7.6875 0 L 7.6875 -59.140625 L 21.078125 -59.140625 L 44.8125 -21.03125 L 45.875 -21.203125 L 45.875 -59.140625 L 57.109375 -59.140625 L 57.109375 0 L 45.140625 0 L 20.015625 -40.6875 L 19.015625 -40.53125 Z M 19.015625 0 "/></g></g></g><g fill="#0000ff" fill-opacity="1"><g transform="translate(85.423499, 211.526327)"><g><path d="M 44.09375 -19.78125 L 15.40625 -19.78125 C 15.726562 -15.894531 16.832031 -13.066406 18.71875 -11.296875 C 20.613281 -9.535156 23.191406 -8.65625 26.453125 -8.65625 C 29.015625 -8.65625 31.09375 -9.132812 32.6875 -10.09375 C 34.28125 -11.050781 35.5625 -12.5 36.53125 -14.4375 L 37.375 -14.4375 L 44.8125 -9.671875 C 43.363281 -6.535156 41.164062 -4 38.21875 -2.0625 C 35.28125 -0.125 31.359375 0.84375 26.453125 0.84375 C 21.835938 0.84375 17.851562 -0.03125 14.5 -1.78125 C 11.144531 -3.53125 8.554688 -6.140625 6.734375 -9.609375 C 4.910156 -13.078125 4 -17.300781 4 -22.28125 C 4 -27.351562 4.957031 -31.628906 6.875 -35.109375 C 8.789062 -38.585938 11.378906 -41.179688 14.640625 -42.890625 C 17.898438 -44.609375 21.566406 -45.46875 25.640625 -45.46875 C 31.953125 -45.46875 36.785156 -43.796875 40.140625 -40.453125 C 43.503906 -37.109375 45.1875 -32.203125 45.1875 -25.734375 C 45.1875 -23.378906 45.101562 -21.554688 44.9375 -20.265625 Z M 34.46875 -27.015625 C 34.351562 -30.421875 33.5625 -32.894531 32.09375 -34.4375 C 30.625 -35.988281 28.472656 -36.765625 25.640625 -36.765625 C 19.984375 -36.765625 16.65625 -33.515625 15.65625 -27.015625 Z M 34.46875 -27.015625 "/></g></g></g><g fill="#0000ff" fill-opacity="1"><g transform="translate(133.914419, 211.526327)"><g><path d="M 12.578125 0 L 0.765625 0 L 13.515625 -23.140625 L 1.453125 -44.625 L 13.4375 -44.625 L 21.15625 -29.9375 L 22.09375 -29.9375 L 29.859375 -44.625 L 41.46875 -44.625 L 29.765625 -23.140625 L 42.15625 0 L 30.21875 0 L 21.796875 -16.296875 L 20.875 -16.296875 Z M 12.578125 0 "/></g></g></g><g fill="#0000ff" fill-opacity="1"><g transform="translate(176.824232, 211.526327)"><g><path d="M 30.78125 -10.640625 L 33.703125 -2.34375 C 32.484375 -1.34375 30.957031 -0.5625 29.125 0 C 27.289062 0.5625 25.210938 0.84375 22.890625 0.84375 C 18.066406 0.84375 14.398438 -0.46875 11.890625 -3.09375 C 9.378906 -5.71875 8.125 -9.539062 8.125 -14.5625 L 8.125 -35.765625 L 1.328125 -35.765625 L 1.328125 -44.65625 L 8.125 -44.65625 L 8.125 -53.359375 L 19.328125 -55.171875 L 19.328125 -44.65625 L 32 -44.65625 L 32 -35.765625 L 19.328125 -35.765625 L 19.328125 -15.375 C 19.328125 -13.15625 19.785156 -11.539062 20.703125 -10.53125 C 21.628906 -9.519531 22.96875 -9.015625 24.71875 -9.015625 C 26.707031 -9.015625 28.445312 -9.554688 29.9375 -10.640625 Z M 30.78125 -10.640625 "/></g></g></g><g fill="#0000ff" fill-opacity="1"><g transform="translate(211.486089, 211.526327)"><g/></g></g><g fill="#0000ff" fill-opacity="1"><g transform="translate(190.864672, 150.999033)"><g><path d="M 26.203125 0.84375 C 22.109375 0.84375 18.460938 0.335938 15.265625 -0.671875 C 12.066406 -1.679688 9.398438 -3.007812 7.265625 -4.65625 C 5.140625 -6.300781 3.515625 -8.109375 2.390625 -10.078125 L 8.8125 -17.921875 L 9.828125 -17.921875 C 11.609375 -15.273438 13.863281 -13.171875 16.59375 -11.609375 C 19.332031 -10.046875 22.535156 -9.265625 26.203125 -9.265625 C 29.335938 -9.265625 31.695312 -9.921875 33.28125 -11.234375 C 34.875 -12.554688 35.671875 -14.378906 35.671875 -16.703125 C 35.671875 -18.109375 35.414062 -19.28125 34.90625 -20.21875 C 34.394531 -21.164062 33.546875 -21.972656 32.359375 -22.640625 C 31.171875 -23.316406 29.566406 -23.898438 27.546875 -24.390625 L 19.9375 -26.125 C 14.625 -27.34375 10.664062 -29.359375 8.0625 -32.171875 C 5.46875 -34.992188 4.171875 -38.65625 4.171875 -43.15625 C 4.171875 -46.5 5.003906 -49.4375 6.671875 -51.96875 C 8.347656 -54.5 10.78125 -56.46875 13.96875 -57.875 C 17.164062 -59.28125 20.988281 -59.984375 25.4375 -59.984375 C 30 -59.984375 33.898438 -59.378906 37.140625 -58.171875 C 40.390625 -56.972656 43.132812 -55.132812 45.375 -52.65625 L 39.59375 -44.734375 L 38.578125 -44.734375 C 36.910156 -46.484375 35 -47.796875 32.84375 -48.671875 C 30.6875 -49.546875 28.21875 -49.984375 25.4375 -49.984375 C 22.226562 -49.984375 19.785156 -49.414062 18.109375 -48.28125 C 16.441406 -47.15625 15.609375 -45.59375 15.609375 -43.59375 C 15.609375 -41.738281 16.191406 -40.253906 17.359375 -39.140625 C 18.535156 -38.035156 20.566406 -37.175781 23.453125 -36.5625 L 31.21875 -34.9375 C 36.96875 -33.726562 41.132812 -31.671875 43.71875 -28.765625 C 46.3125 -25.867188 47.609375 -22.09375 47.609375 -17.4375 C 47.609375 -13.738281 46.8125 -10.519531 45.21875 -7.78125 C 43.625 -5.050781 41.222656 -2.929688 38.015625 -1.421875 C 34.804688 0.0859375 30.867188 0.84375 26.203125 0.84375 Z M 26.203125 0.84375 "/></g></g></g><g fill="#0000ff" fill-opacity="1"><g transform="translate(241.66234, 150.999033)"><g><path d="M 30.78125 -10.640625 L 33.6875 -2.34375 C 32.476562 -1.34375 30.957031 -0.5625 29.125 0 C 27.289062 0.5625 25.210938 0.84375 22.890625 0.84375 C 18.066406 0.84375 14.398438 -0.46875 11.890625 -3.09375 C 9.378906 -5.71875 8.125 -9.539062 8.125 -14.5625 L 8.125 -35.75 L 1.328125 -35.75 L 1.328125 -44.65625 L 8.125 -44.65625 L 8.125 -53.34375 L 19.328125 -55.171875 L 19.328125 -44.65625 L 31.984375 -44.65625 L 31.984375 -35.75 L 19.328125 -35.75 L 19.328125 -15.375 C 19.328125 -13.15625 19.785156 -11.539062 20.703125 -10.53125 C 21.617188 -9.519531 22.953125 -9.015625 24.703125 -9.015625 C 26.703125 -9.015625 28.441406 -9.554688 29.921875 -10.640625 Z M 30.78125 -10.640625 "/></g></g></g><g fill="#0000ff" fill-opacity="1"><g transform="translate(276.322862, 150.999033)"><g><path d="M 44.078125 -19.78125 L 15.40625 -19.78125 C 15.726562 -15.894531 16.832031 -13.066406 18.71875 -11.296875 C 20.613281 -9.535156 23.191406 -8.65625 26.453125 -8.65625 C 29.015625 -8.65625 31.085938 -9.132812 32.671875 -10.09375 C 34.265625 -11.050781 35.546875 -12.5 36.515625 -14.4375 L 37.375 -14.4375 L 44.8125 -9.671875 C 43.351562 -6.535156 41.15625 -4 38.21875 -2.0625 C 35.28125 -0.125 31.359375 0.84375 26.453125 0.84375 C 21.835938 0.84375 17.851562 -0.03125 14.5 -1.78125 C 11.144531 -3.53125 8.554688 -6.132812 6.734375 -9.59375 C 4.910156 -13.0625 4 -17.289062 4 -22.28125 C 4 -27.351562 4.957031 -31.628906 6.875 -35.109375 C 8.789062 -38.585938 11.378906 -41.179688 14.640625 -42.890625 C 17.898438 -44.597656 21.566406 -45.453125 25.640625 -45.453125 C 31.953125 -45.453125 36.785156 -43.78125 40.140625 -40.4375 C 43.492188 -37.09375 45.171875 -32.1875 45.171875 -25.71875 C 45.171875 -23.375 45.09375 -21.554688 44.9375 -20.265625 Z M 34.453125 -27.015625 C 34.347656 -30.410156 33.5625 -32.882812 32.09375 -34.4375 C 30.625 -35.988281 28.472656 -36.765625 25.640625 -36.765625 C 19.972656 -36.765625 16.644531 -33.515625 15.65625 -27.015625 Z M 34.453125 -27.015625 "/></g></g></g><g fill="#0000ff" fill-opacity="1"><g transform="translate(324.815234, 150.999033)"><g><path d="M 6.4375 18.078125 L 6.4375 -44.609375 L 17.640625 -44.609375 L 17.640625 -38.78125 L 18.484375 -38.625 C 19.804688 -40.882812 21.570312 -42.585938 23.78125 -43.734375 C 25.988281 -44.878906 28.578125 -45.453125 31.546875 -45.453125 C 35.128906 -45.453125 38.257812 -44.601562 40.9375 -42.90625 C 43.625 -41.207031 45.71875 -38.625 47.21875 -35.15625 C 48.71875 -31.695312 49.46875 -27.40625 49.46875 -22.28125 C 49.46875 -17.1875 48.675781 -12.910156 47.09375 -9.453125 C 45.519531 -6.003906 43.328125 -3.425781 40.515625 -1.71875 C 37.710938 -0.0078125 34.476562 0.84375 30.8125 0.84375 C 28.039062 0.84375 25.640625 0.378906 23.609375 -0.546875 C 21.585938 -1.472656 19.878906 -2.921875 18.484375 -4.890625 L 17.640625 -4.734375 L 17.640625 18.078125 Z M 27.703125 -8.65625 C 31.046875 -8.65625 33.578125 -9.742188 35.296875 -11.921875 C 37.023438 -14.109375 37.890625 -17.5625 37.890625 -22.28125 C 37.890625 -27 37.023438 -30.457031 35.296875 -32.65625 C 33.578125 -34.851562 31.046875 -35.953125 27.703125 -35.953125 C 24.578125 -35.953125 22.097656 -34.816406 20.265625 -32.546875 C 18.429688 -30.285156 17.515625 -26.863281 17.515625 -22.28125 C 17.515625 -17.726562 18.429688 -14.316406 20.265625 -12.046875 C 22.097656 -9.785156 24.578125 -8.65625 27.703125 -8.65625 Z M 27.703125 -8.65625 "/></g></g></g></svg>